<svg width="44" height="44" viewBox="0 0 44 44" fill="none" xmlns="http://www.w3.org/2000/svg">
  <rect x="2" y="2" width="40" height="40" rx="12" fill="#E8F4FB"/>
  <path d="M22 10.5C17.03 10.5 13 14.53 13 19.5C13 24.47 17.03 28.5 22 28.5C26.97 28.5 31 24.47 31 19.5C31 14.53 26.97 10.5 22 10.5ZM22 12.9C25.64 12.9 28.6 15.86 28.6 19.5C28.6 23.14 25.64 26.1 22 26.1C18.36 26.1 15.4 23.14 15.4 19.5C15.4 15.86 18.36 12.9 22 12.9Z" fill="#1C3D77"/>
  <path d="M21 15.5H23V20.1L26.6 22.3L25.5 24.1L21 21.4V15.5Z" fill="#1C3D77"/>
  <path d="M10.5 31.2C10.5 30.26 11.26 29.5 12.2 29.5H31.8C32.74 29.5 33.5 30.26 33.5 31.2V31.8C33.5 32.74 32.74 33.5 31.8 33.5H12.2C11.26 33.5 10.5 32.74 10.5 31.8V31.2Z" fill="#095866"/>
  <circle cx="14.5" cy="31.5" r="1" fill="#CFF0EC"/>
  <circle cx="18.5" cy="31.5" r="1" fill="#CFF0EC"/>
  <circle cx="22.5" cy="31.5" r="1" fill="#CFF0EC"/>
</svg>
